<svg xmlns="http://www.w3.org/2000/svg" width="201" height="48" fill="none" viewBox="0 0 201 48">
    <circle cx="24" cy="24" r="24" fill="#10B78D"/>
    <path fill="#F3F4F6" d="M13 20h24v8H13z"/>
    <path fill="#F3F4F6" d="M13 40V20h8v20zM13 8h24v8H13z"/>
    <path fill="#191919"
          d="M58.176 35V12.28H73.6v4.608H63.424v4.896h8.384v4.256h-8.384V35h-5.248Zm23.219 0V12.28h5.248v18.112H97.65V35H81.395Zm57.351.16c-1.494 0-2.902-.277-4.224-.832a10.947 10.947 0 0 1-3.488-2.4 11.596 11.596 0 0 1-2.368-3.68c-.555-1.43-.832-3.019-.832-4.768 0-1.579.288-3.05.864-4.416a11.514 11.514 0 0 1 2.4-3.616 10.883 10.883 0 0 1 3.584-2.432c1.386-.597 2.88-.896 4.48-.896 2.09 0 3.936.448 5.536 1.344 1.6.896 2.784 2.101 3.552 3.616l-3.904 2.944a5.706 5.706 0 0 0-2.24-2.368 5.986 5.986 0 0 0-3.136-.864c-.854 0-1.643.181-2.368.544a5.56 5.56 0 0 0-1.856 1.472 6.688 6.688 0 0 0-1.184 2.176 8.43 8.43 0 0 0-.416 2.688c0 .981.149 1.888.448 2.72a6.803 6.803 0 0 0 1.248 2.176 5.827 5.827 0 0 0 1.888 1.408c.746.341 1.568.512 2.464.512a6.41 6.41 0 0 0 3.104-.8c1.002-.555 1.92-1.365 2.752-2.432v5.184c-1.814 1.813-3.915 2.72-6.304 2.72Zm5.984-8.224h-4.416v-3.808h8.768V35h-4.352v-8.064Z"/>
    <path fill="#10B78D"
          d="M171.183 18.936c-.064-.107-.288-.267-.672-.48-.384-.235-.864-.48-1.44-.736a13.925 13.925 0 0 0-1.888-.672 7.534 7.534 0 0 0-2.048-.288c-.896 0-1.589.16-2.08.48-.491.299-.736.768-.736 1.408 0 .512.181.917.544 1.216.384.299.928.565 1.632.8.704.213 1.568.47 2.592.768 1.451.384 2.709.853 3.776 1.408 1.067.533 1.877 1.227 2.432 2.08.576.853.864 1.984.864 3.392 0 1.28-.235 2.368-.704 3.264a5.984 5.984 0 0 1-1.92 2.144c-.789.533-1.696.928-2.72 1.184-1.024.235-2.08.352-3.168.352a19.13 19.13 0 0 1-3.424-.32 21.365 21.365 0 0 1-3.328-.96 15.995 15.995 0 0 1-2.944-1.536l2.304-4.576c.085.107.363.31.832.608.469.277 1.045.576 1.728.896a18.67 18.67 0 0 0 2.336.8 9.728 9.728 0 0 0 2.592.352c.939 0 1.632-.15 2.08-.448.469-.299.704-.715.704-1.248 0-.576-.245-1.024-.736-1.344-.469-.32-1.12-.608-1.952-.864-.811-.256-1.749-.544-2.816-.864-1.387-.427-2.539-.907-3.456-1.44-.896-.533-1.568-1.184-2.016-1.952-.427-.768-.64-1.728-.64-2.88 0-1.6.373-2.944 1.12-4.032.768-1.11 1.792-1.941 3.072-2.496 1.28-.576 2.677-.864 4.192-.864 1.067 0 2.091.128 3.072.384 1.003.256 1.931.576 2.784.96a26.58 26.58 0 0 1 2.336 1.152l-2.304 4.352Zm13.951-6.656 4.896 10.048 4.96-10.048h5.728l-8.096 14.976V35h-5.216v-7.808l-7.968-14.912h5.696Z"/>
    <path fill="#191919" stroke="#191919" d="M108.37 35H103l8-22.5h5.5l8 22.5H119l-5.5-17.5-5.13 17.5Z"/>
</svg>
